<svg width="44" height="45" viewBox="0 0 44 45" fill="none" xmlns="http://www.w3.org/2000/svg">
<g clip-path="url(#clip0_59_1925)">
<path d="M22 44.29C34.1503 44.29 44 34.4403 44 22.29C44 10.1398 34.1503 0.290039 22 0.290039C9.84974 0.290039 0 10.1398 0 22.29C0 34.4403 9.84974 44.29 22 44.29Z" fill="url(#paint0_linear_59_1925)"/>
<path d="M21.9999 38.646C14.3664 38.646 7.64499 33.5044 5.65481 26.1428C5.47484 25.4768 5.87006 24.7887 6.53593 24.6086C6.64343 24.5796 6.7536 24.5649 6.86334 24.5649C7.42654 24.5649 7.92279 24.9452 8.06997 25.4899C9.76587 31.7629 15.4941 36.144 21.9999 36.144C28.5056 36.144 34.2338 31.7629 35.9297 25.4899C36.0769 24.9453 36.5732 24.565 37.1365 24.565C37.2463 24.565 37.3565 24.5797 37.4641 24.6087C38.1297 24.7887 38.525 25.4769 38.3449 26.1428C36.3549 33.5045 29.6335 38.646 21.9999 38.646Z" fill="url(#paint1_linear_59_1925)"/>
<path d="M31.8414 2.60986C33.3251 5.57123 34.1615 8.91325 34.1615 12.4511C34.1615 24.6013 24.3118 34.451 12.1616 34.451C8.6237 34.451 5.28168 33.6147 2.32031 32.1309C5.93245 39.34 13.3877 44.2896 22.0001 44.2896C34.1504 44.2896 44.0001 34.4399 44.0001 22.2896C44.0001 13.6772 39.0505 6.222 31.8414 2.60986Z" fill="url(#paint2_linear_59_1925)"/>
<path d="M15.7648 16.1192C15.7648 18.0013 14.2391 19.527 12.3571 19.527C10.475 19.527 8.94922 18.0012 8.94922 16.1192C8.94922 14.2372 10.475 12.7114 12.3571 12.7114C14.2391 12.7114 15.7648 14.2372 15.7648 16.1192Z" fill="url(#paint3_linear_59_1925)"/>
<path d="M15.2019 16.1195C15.2019 17.6902 13.9285 18.9636 12.3578 18.9636C10.787 18.9636 9.51367 17.6903 9.51367 16.1195C9.51367 14.5487 10.787 13.2754 12.3578 13.2754C13.9285 13.2754 15.2019 14.5487 15.2019 16.1195Z" fill="url(#paint4_linear_59_1925)"/>
<path d="M13.8814 13.0708C14.1112 13.5295 14.2408 14.0471 14.2408 14.5952C14.2408 16.4773 12.7151 18.003 10.833 18.003C10.285 18.003 9.76731 17.8734 9.30859 17.6436C9.86808 18.7603 11.023 19.527 12.357 19.527C14.2391 19.527 15.7648 18.0012 15.7648 16.1192C15.7648 14.7851 14.9981 13.6303 13.8814 13.0708Z" fill="url(#paint5_linear_59_1925)"/>
<path d="M35.0518 16.1192C35.0518 18.0013 33.5261 19.527 31.6441 19.527C29.7619 19.527 28.2363 18.0012 28.2363 16.1192C28.2363 14.2372 29.7619 12.7114 31.6441 12.7114C33.5262 12.7114 35.0518 14.2372 35.0518 16.1192Z" fill="url(#paint6_linear_59_1925)"/>
<path d="M34.4871 16.1195C34.4871 17.6902 33.2137 18.9636 31.6429 18.9636C30.0721 18.9636 28.7988 17.6903 28.7988 16.1195C28.7988 14.5487 30.0721 13.2754 31.6429 13.2754C33.2136 13.2754 34.4871 14.5487 34.4871 16.1195Z" fill="url(#paint7_linear_59_1925)"/>
<path d="M33.1665 13.0708C33.3964 13.5295 33.5261 14.0471 33.5261 14.5952C33.5261 16.4773 32.0003 18.003 30.1182 18.003C29.5702 18.003 29.0525 17.8734 28.5938 17.6436C29.1532 18.7603 30.3082 19.527 31.6423 19.527C33.5243 19.527 35.0499 18.0012 35.0499 16.1192C35.0499 14.7851 34.2833 13.6303 33.1665 13.0708Z" fill="url(#paint8_linear_59_1925)"/>
<path d="M21.9999 23.9767C30.3499 23.9767 37.1189 19.0871 37.1189 13.0555C37.1189 7.02388 30.3499 2.13428 21.9999 2.13428C13.6499 2.13428 6.88086 7.02388 6.88086 13.0555C6.88086 19.0871 13.6499 23.9767 21.9999 23.9767Z" fill="url(#paint9_linear_59_1925)"/>
</g>
<defs>
<linearGradient id="paint0_linear_59_1925" x1="13.7686" y1="14.0586" x2="42.2622" y2="42.5522" gradientUnits="userSpaceOnUse">
<stop stop-color="#FFD945"/>
<stop offset="1" stop-color="#FFA325"/>
</linearGradient>
<linearGradient id="paint1_linear_59_1925" x1="21.9999" y1="28.079" x2="21.9999" y2="38.8715" gradientUnits="userSpaceOnUse">
<stop stop-color="#8A7889"/>
<stop offset="1" stop-color="#6E566E"/>
</linearGradient>
<linearGradient id="paint2_linear_59_1925" x1="22.7642" y1="30.7211" x2="53.0042" y2="-25.5211" gradientUnits="userSpaceOnUse">
<stop stop-color="#FFD945" stop-opacity="0"/>
<stop offset="1" stop-color="#B43759"/>
</linearGradient>
<linearGradient id="paint3_linear_59_1925" x1="11.082" y1="14.8442" x2="15.4957" y2="19.2578" gradientUnits="userSpaceOnUse">
<stop stop-color="#8A7889"/>
<stop offset="1" stop-color="#6E566E"/>
</linearGradient>
<linearGradient id="paint4_linear_59_1925" x1="11.9649" y1="15.5531" x2="9.49287" y2="11.9896" gradientUnits="userSpaceOnUse">
<stop stop-color="#BDC2D1" stop-opacity="0"/>
<stop offset="0.3183" stop-color="#C1C6D4" stop-opacity="0.318"/>
<stop offset="0.6082" stop-color="#CCD0DD" stop-opacity="0.608"/>
<stop offset="0.8861" stop-color="#DEE2EC" stop-opacity="0.886"/>
<stop offset="1" stop-color="#E8ECF4"/>
</linearGradient>
<linearGradient id="paint5_linear_59_1925" x1="12.4753" y1="17.4252" x2="17.1596" y2="8.71321" gradientUnits="userSpaceOnUse">
<stop stop-color="#6E566E" stop-opacity="0"/>
<stop offset="0.0471" stop-color="#6E566E" stop-opacity="0.047"/>
<stop offset="1" stop-color="#6E566E"/>
</linearGradient>
<linearGradient id="paint6_linear_59_1925" x1="30.369" y1="14.8442" x2="34.7827" y2="19.2578" gradientUnits="userSpaceOnUse">
<stop stop-color="#8A7889"/>
<stop offset="1" stop-color="#6E566E"/>
</linearGradient>
<linearGradient id="paint7_linear_59_1925" x1="31.25" y1="15.5531" x2="28.7781" y2="11.9896" gradientUnits="userSpaceOnUse">
<stop stop-color="#BDC2D1" stop-opacity="0"/>
<stop offset="0.3183" stop-color="#C1C6D4" stop-opacity="0.318"/>
<stop offset="0.6082" stop-color="#CCD0DD" stop-opacity="0.608"/>
<stop offset="0.8861" stop-color="#DEE2EC" stop-opacity="0.886"/>
<stop offset="1" stop-color="#E8ECF4"/>
</linearGradient>
<linearGradient id="paint8_linear_59_1925" x1="31.7605" y1="17.4252" x2="36.4447" y2="8.7132" gradientUnits="userSpaceOnUse">
<stop stop-color="#6E566E" stop-opacity="0"/>
<stop offset="0.0471" stop-color="#6E566E" stop-opacity="0.047"/>
<stop offset="1" stop-color="#6E566E"/>
</linearGradient>
<linearGradient id="paint9_linear_59_1925" x1="23.7103" y1="19.3706" x2="18.0169" y2="-1.65076" gradientUnits="userSpaceOnUse">
<stop stop-color="#FFD945" stop-opacity="0"/>
<stop offset="1" stop-color="white"/>
</linearGradient>
<clipPath id="clip0_59_1925">
<rect width="44" height="44" fill="white" transform="translate(0 0.290039)"/>
</clipPath>
</defs>
</svg>
